<mxfile host="app.diagrams.net" modified="2021-08-22T14:41:54.616Z" agent="5.0 (Windows NT 10.0; Win64; x64) AppleWebKit/537.36 (KHTML, like Gecko) Chrome/92.0.4515.131 Safari/537.36 OPR/78.0.4093.153" etag="5ScVDPA0DxLbwFgCMNPy" version="14.9.6" type="github">
  <diagram id="KVyobn4MKq_wzE25j2QP" name="Page-1">
    <mxGraphModel dx="1038" dy="548" grid="1" gridSize="10" guides="1" tooltips="1" connect="1" arrows="1" fold="1" page="1" pageScale="1" pageWidth="850" pageHeight="1100" math="0" shadow="0">
      <root>
        <mxCell id="0" />
        <mxCell id="1" parent="0" />
        <mxCell id="5s0amOLIgiW-mHHW7Yh0-15" style="edgeStyle=orthogonalEdgeStyle;rounded=0;orthogonalLoop=1;jettySize=auto;html=1;endArrow=none;endFill=0;" edge="1" parent="1">
          <mxGeometry relative="1" as="geometry">
            <mxPoint x="70" y="840.7999267578125" as="targetPoint" />
            <mxPoint x="40" y="120" as="sourcePoint" />
            <Array as="points">
              <mxPoint x="40" y="841" />
            </Array>
          </mxGeometry>
        </mxCell>
        <mxCell id="5s0amOLIgiW-mHHW7Yh0-1" value="Actor" style="shape=umlActor;verticalLabelPosition=bottom;verticalAlign=top;html=1;outlineConnect=0;" vertex="1" parent="1">
          <mxGeometry x="30" y="60" width="20" height="50" as="geometry" />
        </mxCell>
        <mxCell id="5s0amOLIgiW-mHHW7Yh0-12" style="edgeStyle=orthogonalEdgeStyle;rounded=0;orthogonalLoop=1;jettySize=auto;html=1;endArrow=none;endFill=0;" edge="1" parent="1" source="5s0amOLIgiW-mHHW7Yh0-2">
          <mxGeometry relative="1" as="geometry">
            <mxPoint x="170" y="840" as="targetPoint" />
          </mxGeometry>
        </mxCell>
        <mxCell id="5s0amOLIgiW-mHHW7Yh0-2" value=": Registration" style="rounded=0;whiteSpace=wrap;html=1;" vertex="1" parent="1">
          <mxGeometry x="120" y="70" width="100" height="40" as="geometry" />
        </mxCell>
        <mxCell id="5s0amOLIgiW-mHHW7Yh0-14" style="edgeStyle=orthogonalEdgeStyle;rounded=0;orthogonalLoop=1;jettySize=auto;html=1;endArrow=none;endFill=0;" edge="1" parent="1" source="5s0amOLIgiW-mHHW7Yh0-9">
          <mxGeometry relative="1" as="geometry">
            <mxPoint x="550" y="840.800048828125" as="targetPoint" />
          </mxGeometry>
        </mxCell>
        <mxCell id="5s0amOLIgiW-mHHW7Yh0-9" value=": Home page" style="rounded=0;whiteSpace=wrap;html=1;" vertex="1" parent="1">
          <mxGeometry x="500" y="70" width="100" height="40" as="geometry" />
        </mxCell>
        <mxCell id="5s0amOLIgiW-mHHW7Yh0-13" style="edgeStyle=orthogonalEdgeStyle;rounded=0;orthogonalLoop=1;jettySize=auto;html=1;endArrow=none;endFill=0;" edge="1" parent="1" source="5s0amOLIgiW-mHHW7Yh0-10">
          <mxGeometry relative="1" as="geometry">
            <mxPoint x="360" y="840.7999877929688" as="targetPoint" />
          </mxGeometry>
        </mxCell>
        <mxCell id="5s0amOLIgiW-mHHW7Yh0-10" value=": Database" style="rounded=0;whiteSpace=wrap;html=1;" vertex="1" parent="1">
          <mxGeometry x="310" y="70" width="100" height="40" as="geometry" />
        </mxCell>
      </root>
    </mxGraphModel>
  </diagram>
</mxfile>
